<?xml version="1.0" standalone="no"?>
<!DOCTYPE svg PUBLIC "-//W3C//DTD SVG 20010904//EN"
 "http://www.w3.org/TR/2001/REC-SVG-20010904/DTD/svg10.dtd">
<svg version="1.0" xmlns="http://www.w3.org/2000/svg"
 width="256.000000pt" height="256.000000pt" viewBox="0 0 256.000000 256.000000"
 preserveAspectRatio="xMidYMid meet">

<g transform="translate(0.000000,256.000000) scale(0.100000,-0.100000)"
fill="#000000" stroke="none">
<path d="M1125 2360 c-103 -21 -332 -124 -424 -191 -92 -66 -229 -295 -339
-564 -84 -206 -160 -464 -167 -565 -3 -55 9 -70 16 -20 l6 45 1 -42 c1 -23 6
-45 12 -48 5 -3 10 -1 10 5 0 6 4 9 9 5 5 -3 12 -1 16 5 4 7 12 7 24 0 10 -5
22 -6 25 -2 9 9 1146 10 1146 1 0 -4 14 -2 30 4 17 6 30 17 30 24 0 7 7 13 16
13 14 0 14 -2 -1 -16 -12 -12 -13 -19 -4 -30 16 -20 21 -17 14 7 -9 28 13 15
25 -15 l9 -21 0 22 c1 12 -3 25 -9 28 -5 3 -10 13 -10 21 0 11 4 10 18 -3 11
-10 17 -22 14 -27 -3 -5 0 -6 6 -2 8 5 11 -2 8 -23 -2 -22 0 -28 11 -24 7 3
21 -1 30 -8 24 -20 -24 50 -70 100 -21 24 -42 39 -49 35 -6 -4 -8 -3 -5 3 8
13 -15 33 -73 65 -126 69 -282 83 -399 35 -35 -15 -67 -25 -69 -22 -3 3 -15
45 -28 93 -20 83 -32 111 -84 202 -26 45 -26 125 -1 246 34 165 61 195 142
153 55 -28 116 -30 154 -5 l29 19 -48 44 c-48 46 -56 75 -22 81 12 3 36 -13
66 -43 l47 -46 29 25 29 25 -42 43 c-44 45 -54 72 -29 81 16 6 64 -26 95 -64
l20 -24 21 21 21 20 -41 46 c-22 25 -40 53 -40 62 0 30 44 18 85 -24 42 -43
58 -41 69 6 17 65 -73 165 -199 225 -64 31 -68 31 -130 19z m429 -1308 c2 -4
-4 -8 -14 -8 -10 0 -16 4 -14 8 3 4 9 8 14 8 5 0 11 -4 14 -8z"/>
<path d="M2266 1654 c-122 -29 -249 -116 -299 -202 l-18 -31 39 -20 c50 -26
138 -96 152 -120 5 -11 7 -27 4 -35 -10 -27 -43 -18 -80 24 -21 23 -68 56
-110 77 -162 80 -355 44 -482 -89 l-33 -35 57 -32 c31 -18 77 -52 103 -76 33
-31 51 -41 62 -35 11 6 15 4 15 -10 0 -14 -3 -16 -13 -8 -7 6 -13 7 -13 3 0
-8 101 -145 107 -145 2 0 1 5 -3 11 -3 6 0 15 7 20 10 6 11 9 2 9 -7 0 -13 6
-13 13 0 6 -7 26 -15 42 l-15 30 21 -25 21 -25 271 0 c179 -1 277 2 286 9 11
8 13 8 8 -1 -12 -20 14 -26 29 -7 8 11 14 15 13 9 -5 -35 5 -43 12 -10 5 22
12 183 16 358 l6 317 -39 -1 c-21 0 -66 -7 -98 -15z m-546 -646 c17 -25 31
-58 26 -58 -2 0 -15 18 -30 40 -14 22 -23 40 -19 40 5 0 15 -10 23 -22z"/>
<path d="M1790 946 c0 -8 5 -18 10 -21 6 -3 10 1 10 10 0 11 5 15 16 11 8 -3
12 -2 9 4 -10 15 -45 12 -45 -4z"/>
<path d="M1680 903 c0 -6 8 -17 18 -24 16 -13 16 -13 2 6 -8 11 -16 22 -17 24
-2 2 -3 0 -3 -6z"/>
<path d="M1775 900 c3 -5 8 -10 11 -10 2 0 4 5 4 10 0 6 -5 10 -11 10 -5 0 -7
-4 -4 -10z"/>
</g>
</svg>
